<?xml version="1.0"?>
<svg xmlns="http://www.w3.org/2000/svg" viewBox="0 0 512 512" width="512" height="512"><g id="Outline"><path d="M489.511,167.377a84.923,84.923,0,0,0-18.484-27.664l-10.74-10.74A69.385,69.385,0,0,1,440,80V72h8V56h-8V32a16.019,16.019,0,0,0-16-16H376a16.019,16.019,0,0,0-16,16V56h-8V72h8v8a69.381,69.381,0,0,1-20.287,48.973l11.314,11.314A85.38,85.38,0,0,0,376,80V72h48v8a85.384,85.384,0,0,0,24.973,60.287l10.74,10.74A69.088,69.088,0,0,1,479.521,192H368v16H480v96H448v16h31.6c-.2,2.179-.462,4.352-.813,6.5a94.065,94.065,0,0,1-3.614,14.688,110.046,110.046,0,0,0,0,69.619A93.939,93.939,0,0,1,480,440.57v19.15a20.283,20.283,0,0,1-34.623,14.342l-7.72-7.719a8,8,0,0,0-11.314,0l-4.691,4.69a30.392,30.392,0,0,1-2.989,2.625l9.75,12.686a46.738,46.738,0,0,0,3.572-3.044l2.077,2.077A36.281,36.281,0,0,0,496,459.72V440.57a109.878,109.878,0,0,0-5.65-34.817,94.046,94.046,0,0,1,0-59.494,110.228,110.228,0,0,0,4.228-17.18,108.678,108.678,0,0,0,1.413-16.834c0-.082.012-.162.012-.245V200A84.914,84.914,0,0,0,489.511,167.377ZM376,56V32h48V56Z"/><path d="M133.652,471.033A30.627,30.627,0,0,1,112,480a30.833,30.833,0,0,1-21.652-8.967l-4.691-4.69a8,8,0,0,0-11.314,0l-7.72,7.719A20.283,20.283,0,0,1,32,459.72V440.57a94.18,94.18,0,0,1,4.83-29.762A109.974,109.974,0,0,0,42.48,376a110.006,110.006,0,0,0-5.65-34.811A93.69,93.69,0,0,1,32.4,320H144V304H32V208H144V192H32.473a68.728,68.728,0,0,1,19.814-40.973l10.74-10.74A84.729,84.729,0,0,0,78.007,120h67.987a84.721,84.721,0,0,0,14.979,20.287l11.314-11.314A69.385,69.385,0,0,1,152,80V72h8V56h-8V32a16.019,16.019,0,0,0-16-16H88A16.019,16.019,0,0,0,72,32V56H64V72h8v8a68.654,68.654,0,0,1-6.234,28.693,68.8,68.8,0,0,1-14.053,20.28l-10.74,10.74A84.7,84.7,0,0,0,16,200V312c0,.082.01.161.012.242a109.569,109.569,0,0,0,5.638,34A94.008,94.008,0,0,1,26.48,376a93.961,93.961,0,0,1-4.827,29.741A110.269,110.269,0,0,0,16,440.57v19.15a36.282,36.282,0,0,0,61.938,25.657l2.077-2.078A46.965,46.965,0,0,0,112,496a46.651,46.651,0,0,0,32.967-13.652l4.69-4.691-11.314-11.314ZM88,72h48v8a84.649,84.649,0,0,0,3.446,24H84.554A84.639,84.639,0,0,0,88,80Zm0-40h48V56H88Z"/><rect x="48" y="224" width="16" height="16"/><rect x="48" y="256" width="16" height="32"/><path d="M256,480a30.833,30.833,0,0,1-21.652-8.967l-4.691-4.69a8,8,0,0,0-11.314,0l-7.72,7.719A20.28,20.28,0,0,1,176,459.72V440.57a94.18,94.18,0,0,1,4.83-29.762,110.055,110.055,0,0,0,0-69.619A93.69,93.69,0,0,1,176.4,320H240V304H176V208H336v16h16V200a85.145,85.145,0,0,0-17.637-51.908c-2.214-2.905-18.076-19.119-18.076-19.119A69.385,69.385,0,0,1,296,80V72h8V56h-8V32a16.019,16.019,0,0,0-16-16H232a16.019,16.019,0,0,0-16,16V56h-8V72h8v8a69.37,69.37,0,0,1-20.287,48.973l-10.74,10.74a83.4,83.4,0,0,0-7.315,8.35A85.645,85.645,0,0,0,160,200V312c0,.082.01.162.012.243a109.592,109.592,0,0,0,5.638,34,94.046,94.046,0,0,1,0,59.494A110.269,110.269,0,0,0,160,440.57v19.15A36.487,36.487,0,0,0,180.508,492.4a36.282,36.282,0,0,0,41.43-7.02l2.077-2.078A46.965,46.965,0,0,0,256,496a46.413,46.413,0,0,0,17.84-3.549l-6.119-14.783A30.5,30.5,0,0,1,256,480ZM232,72h48v8a84.614,84.614,0,0,0,3.446,24H228.554A84.639,84.639,0,0,0,232,80Zm0-40h48V56H232ZM190.363,157.789c1.782-2.338,16.664-17.5,16.664-17.5A84.729,84.729,0,0,0,222.007,120h67.987a84.721,84.721,0,0,0,14.979,20.287s14.882,15.164,16.693,17.54A68.933,68.933,0,0,1,335.521,192H176.479A69.65,69.65,0,0,1,190.363,157.789Z"/><rect x="192" y="224" width="16" height="16"/><rect x="192" y="256" width="16" height="32"/><path d="M432,248a8,8,0,0,0-8-8H264a8,8,0,0,0-8,8v58.67a132.005,132.005,0,0,0,13.963,59.135,116.013,116.013,0,0,1,11.931,43.078l6.129,79.73A8,8,0,0,0,296,496h96a8,8,0,0,0,7.977-7.387l6.129-79.726a116.665,116.665,0,0,1,11.928-43.077A132.84,132.84,0,0,0,432,306.67Zm-16,8v24H272V256ZM403.723,358.656a132.648,132.648,0,0,0-13.57,49L384.592,480H303.408l-5.561-72.348a131.968,131.968,0,0,0-13.574-49A115.989,115.989,0,0,1,272,306.67V296H416v10.67A116.77,116.77,0,0,1,403.723,358.656Z"/><rect x="320" y="424" width="16" height="16"/><rect x="344" y="392" width="16" height="16"/><rect x="328" y="336" width="16" height="16"/></g></svg>
