<?xml version="1.0" encoding="UTF-8"?>
<svg xmlns="http://www.w3.org/2000/svg" id="Outline" viewBox="0 0 512 512" width="512" height="512"><path d="M488,416h-9.819l-40.8-156.41a7.985,7.985,0,0,0-9.5-5.776L411.8,192.194a7.987,7.987,0,0,0,5.471-9.683l-16.84-64.55A8.009,8.009,0,0,0,392.138,112H392a8,8,0,0,1-3.594-15.153,8,8,0,0,0,4.125-9.156l-8.79-33.71A8,8,0,0,0,376,48H248a8,8,0,0,0-7.741,5.98l-46.23,177.21a7.982,7.982,0,0,0,5.479,9.683l-7.5,28.734-8.175-39.239A8,8,0,0,0,176,224H80a8,8,0,0,0-7.832,6.368l-20.6,98.88a8,8,0,0,0,4.028,8.67,16,16,0,0,1-6.236,30.02,8,8,0,0,0-7.172,6.34L33.495,416H24a8,8,0,0,0-8,8v32a8,8,0,0,0,8,8H488a8,8,0,0,0,8-8V424A8,8,0,0,0,488,416ZM396.859,198.3l14.979,57.417A32.032,32.032,0,0,1,396.859,198.3Zm-21.2-111.9a24.016,24.016,0,0,0,10.677,40.921l13.43,51.478A48.015,48.015,0,0,0,416,272a48.366,48.366,0,0,0,7.914-.649L461.645,416H398.181l-4.561-17.48a31.994,31.994,0,0,0-16.134-61.842L330.571,156.851a8,8,0,0,0-14.022-2.935,15.934,15.934,0,0,1-1.67,1.814c-.05.042-.1.085-.147.128a16,16,0,1,1-4.618-26.644,8,8,0,0,0,10.8-9.413L306.355,64h63.463Zm5.874,265.8a15.98,15.98,0,0,1,8.029,30.774ZM254.181,64h35.638l12.533,48.042a32,32,0,1,0,15.815,60.647l22.719,87.08a23.993,23.993,0,1,0,8.244,31.6L381.645,416H222.505l-20.233-97.12a48,48,0,0,0,9.106-90.808ZM336,280a8,8,0,1,1-8-8A8.009,8.009,0,0,1,336,280ZM198.723,380.3a7.986,7.986,0,1,1-2.28-10.944ZM224,272a32.17,32.17,0,0,1-24.177,31.013l14.169-54.277A31.96,31.96,0,0,1,224,272Zm-31.167,80.022c-.278-.01-.555-.022-.833-.022a24,24,0,1,0,10.337,45.642L206.161,416H174.505L137.839,240H169.5ZM112,400a16,16,0,1,1,16,16A16.019,16.019,0,0,1,112,400Zm46.161,16H155.7a31.879,31.879,0,0,0,1.745-3.464Zm-101.4-33.229a32,32,0,0,0,11.56-55.492L86.505,240H121.5l3.44,16.513a24,24,0,1,0,8.965,43.033l16.092,77.242A31.975,31.975,0,0,0,100.305,416H49.839ZM128,280a8,8,0,1,1-8-8A8.009,8.009,0,0,1,128,280ZM480,448H32V432H480Z"/><path d="M272,400a32,32,0,1,0-32-32A32.036,32.036,0,0,0,272,400Zm0-48a16,16,0,1,1-16,16A16.019,16.019,0,0,1,272,352Z"/></svg>
