<?xml version="1.0" encoding="UTF-8"?>
<svg xmlns="http://www.w3.org/2000/svg" id="Outline" viewBox="0 0 512 512" width="512" height="512"><path d="M465.538,158.465A103.281,103.281,0,0,0,392,128a24.039,24.039,0,0,0-22.624,16H334.624A24.039,24.039,0,0,0,312,128H296a24.039,24.039,0,0,0-22.624,16H238.624A24.039,24.039,0,0,0,216,128H200a24.039,24.039,0,0,0-22.624,16H142.638A24,24,0,0,0,120,128,104.118,104.118,0,0,0,16,232v16a40.045,40.045,0,0,0,40,40h48.005a103.425,103.425,0,0,0-8,40v16a40.045,40.045,0,0,0,40,40H440a40.045,40.045,0,0,0,40-40V328a103.4,103.4,0,0,0-9.218-42.8A39.809,39.809,0,0,0,496,248V232A103.275,103.275,0,0,0,465.538,158.465ZM336,160h32v24a8.009,8.009,0,0,1-8,8H344a8.009,8.009,0,0,1-8-8Zm-96,0h32v24a8.009,8.009,0,0,1-8,8H248a8.009,8.009,0,0,1-8-8Zm-96,0h32v24a8.009,8.009,0,0,1-8,8H152a8.009,8.009,0,0,1-8-8ZM464,344a24.027,24.027,0,0,1-24,24H136a24.027,24.027,0,0,1-24-24V328a88.1,88.1,0,0,1,88-88,8.009,8.009,0,0,1,8,8v32a24.027,24.027,0,0,0,24,24h16a24.027,24.027,0,0,0,24-24V248a8.009,8.009,0,0,1,8-8h16a8.009,8.009,0,0,1,8,8v32a24.027,24.027,0,0,0,24,24h16a24.027,24.027,0,0,0,24-24V248a8.009,8.009,0,0,1,8-8,88.1,88.1,0,0,1,88,88ZM256,256v24a8.009,8.009,0,0,1-8,8H232a8.009,8.009,0,0,1-8-8V256Zm96,0v24a8.009,8.009,0,0,1-8,8H328a8.009,8.009,0,0,1-8-8V256Zm128-8a23.871,23.871,0,0,1-17.067,22.984A103.991,103.991,0,0,0,376,224a24.039,24.039,0,0,0-22.624,16H318.624A24.039,24.039,0,0,0,296,224H280a24.038,24.038,0,0,0-22.624,16H222.624A24.039,24.039,0,0,0,200,224a104.011,104.011,0,0,0-87.6,48H56a24.028,24.028,0,0,1-24-24V232a88.1,88.1,0,0,1,88-88,7.981,7.981,0,0,1,8,8v32a24.028,24.028,0,0,0,24,24h16a24.028,24.028,0,0,0,24-24V152a8.009,8.009,0,0,1,8-8h16a8.009,8.009,0,0,1,8,8v32a24.028,24.028,0,0,0,24,24h16a24.028,24.028,0,0,0,24-24V152a8.009,8.009,0,0,1,8-8h16a8.009,8.009,0,0,1,8,8v32a24.028,24.028,0,0,0,24,24h16a24.028,24.028,0,0,0,24-24V152a8.009,8.009,0,0,1,8-8,88.006,88.006,0,0,1,88,88Z"/><circle cx="72" cy="232" r="8"/><circle cx="104" cy="232" r="8"/><circle cx="72" cy="200" r="8"/><circle cx="424" cy="328" r="8"/><circle cx="392" cy="328" r="8"/><circle cx="424" cy="296" r="8"/></svg>
