<svg height="512pt" viewBox="-10 0 512 512" width="512pt" xmlns="http://www.w3.org/2000/svg"><path d="m314.023438 288h21.386718v15h-21.386718zm0 0"/><path d="m156.613281 288h124.410157v15h-124.410157zm0 0"/><path d="m314.023438 254.011719h21.386718v15h-21.386718zm0 0"/><path d="m156.613281 254.011719h124.410157v15h-124.410157zm0 0"/><path d="m314.023438 220.023438h21.386718v15h-21.386718zm0 0"/><path d="m156.613281 220.023438h124.410157v15h-124.410157zm0 0"/><path d="m314.023438 356.085938h21.386718v15h-21.386718zm0 0"/><path d="m314.023438 322.097656h21.386718v15h-21.386718zm0 0"/><path d="m157.273438 322.097656h123.75v15h-123.75zm0 0"/><path d="m343.882812 412.789062v-15h-10.976562v-10.613281h-15v10.613281h-10.976562v36.949219h21.953124v6.953125h-21.953124v15h10.976562v11.851563h15v-11.851563h10.976562v-36.953125h-21.953124v-6.949219zm0 0"/><path d="m199.410156 74.113281-4.183594-15.667969h-37.953124v15h26.433593l25.6875 96.144532h3.152344c-.730469 2.183594-1.128906 4.515625-1.128906 6.941406 0 12.101562 9.84375 21.945312 21.945312 21.945312 12.097657 0 21.941407-9.84375 21.941407-21.945312 0-2.425781-.394532-4.757812-1.125-6.941406h16.800781c-.730469 2.183594-1.128907 4.515625-1.128907 6.941406 0 12.101562 9.84375 21.945312 21.945313 21.945312 12.097656 0 21.941406-9.84375 21.941406-21.945312 0-12.097656-9.84375-21.941406-21.941406-21.941406h-70.886719l-1.433594-5.367188h87.328126l16.085937-60.109375h6.078125v-15zm107.953125 15-4.027343 15.054688h-23.625v-15.054688zm-42.652343 0v15.054688h-18.621094v-15.054688zm-33.621094 0v15.054688h-23.621094l-4.03125-15.054688zm9.21875 87.417969c0 3.828125-3.117188 6.941406-6.945313 6.941406s-6.941406-3.113281-6.941406-6.941406 3.113281-6.941406 6.941406-6.941406 6.945313 3.113281 6.945313 6.941406zm58.429687 0c0 3.828125-3.113281 6.941406-6.941406 6.941406s-6.941406-3.113281-6.941406-6.941406 3.113281-6.941406 6.941406-6.941406 6.941406 3.113281 6.941406 6.941406zm-83.226562-42.308594-4.03125-15.054687h19.609375v15.054687zm30.578125 0v-15.054687h18.621094v15.054687zm33.621094 0v-15.054687h19.609374l-4.027343 15.054687zm0 0"/><path d="m272.75 445.929688v15h21.25v-66h-21.25v15h6.25v36zm0 0"/><path d="m427.8125 0h-250.25c-35.390625 0-64.1875 28.792969-64.1875 64.1875v279.402344h15v-279.402344c0-27.121094 22.066406-49.1875 49.1875-49.1875h209.054688c-14.046876 11.785156-22.992188 29.460938-22.992188 49.1875v383.625c0 27.121094-22.066406 49.1875-49.1875 49.1875-27.125 0-49.1875-22.0625-49.1875-49.1875v-76.722656h15.773438v-15h-281.023438v91.722656c0 35.394531 28.792969 64.1875 64.1875 64.1875h250.3125c35.363281-.035156 64.125-28.816406 64.125-64.1875v-336.644531h49.1875v-15h-49.1875v-31.980469c0-27.121094 22.066406-49.1875 49.1875-49.1875 27.125 0 49.1875 22.066406 49.1875 49.1875v87.714844h-85.875v15h100.875v-102.714844c0-35.394531-28.792969-64.1875-64.1875-64.1875zm-363.625 497c-27.121094 0-49.1875-22.066406-49.1875-49.1875v-76.722656h235.25v76.722656c0 19.726562 8.945312 37.40625 23.003906 49.1875zm0 0"/><path d="m167.253906 402.988281h-79.457031v-15h79.457031zm-89.457031 0h-15v-15h15zm-25 0h-15v-15h15zm0 0"/><path d="m348 42.492188h-71.726562v-15h71.726562zm-81.726562 0h-15v-15h15zm-25 0h-15v-15h15zm0 0"/></svg>