<svg xmlns="http://www.w3.org/2000/svg" viewBox="0 0 101 101"><title>Asset 15</title><g id="Layer_2" data-name="Layer 2"><g id="Layer_1-2" data-name="Layer 1"><path d="M50.5,0A50.5,50.5,0,1,0,101,50.5,50.5,50.5,0,0,0,50.5,0Zm4.3,71.46v4.39H51V71.69a24.87,24.87,0,0,1-11.54-3l1.75-6.85c3.68,1.55,8.57,3.19,12.41,2.25,4.41-1.08,5.32-6,.43-8.38-3.58-1.8-14.53-3.35-14.53-13.51,0-5.68,4-10.76,11.48-11.87V25.85H54.8v4.24a33.36,33.36,0,0,1,9.39,1.75L62.8,38.71c-3-1.13-6.22-2.15-9.4-1.94-5.73.36-6.23,5.73-2.23,8,6.58,3.36,15.16,5.84,15.16,14.78C66.34,66.69,61.17,70.5,54.8,71.46Z"/></g></g></svg>