<?xml version="1.0" encoding="iso-8859-1"?>
<!-- Generator: Adobe Illustrator 19.0.0, SVG Export Plug-In . SVG Version: 6.00 Build 0)  -->
<svg xmlns="http://www.w3.org/2000/svg" xmlns:xlink="http://www.w3.org/1999/xlink" version="1.1" id="Layer_1" x="0px" y="0px" viewBox="0 0 512.204 512.204" style="enable-background:new 0 0 512.204 512.204;" xml:space="preserve" width="512" height="512">
<path d="M449.818,456.034c40.825-25.84,62.284-67.344,62.284-120.999c0-31.974-7.657-59.771-22.76-82.621  c-12.291-18.597-29.286-33.621-50.606-44.769c0.898-8.065,1.366-16.375,1.366-24.933c0-31.143-5.972-59.147-17.749-83.239  c-11.246-23.006-27.771-42.489-49.116-57.912C335.605,14.371,282.652,0,220.102,0S104.599,14.371,66.967,41.561  c-21.345,15.423-37.87,34.906-49.116,57.912C6.074,123.564,0.102,151.569,0.102,182.712c0,66.634,27.167,117.828,78.796,149.038  c-6.939,23.465-15.498,37.508-15.566,37.619L44.183,400h36.162c0.12,0.001,0.244,0.001,0.376,0.001  c8.647,0,43.124-1.615,75.84-25.288c8.069,33.645,26.999,60.934,55.634,79.798c30.28,19.947,71.744,30.491,119.907,30.491  c13.664,0,26.074-0.694,37.629-2.113c29.157,27.523,63.681,29.285,74.276,29.114l0.036-0.001l37.762,0.202l-21.112-31.168  C460.219,480.279,454.716,471.315,449.818,456.034z M114.109,352.983c2.708-7.933,5.344-16.973,7.559-26.975l3.394-15.32  l-14.072-6.941c-47.037-23.201-70.887-63.924-70.887-121.035C40.102,58.54,152.877,40,220.102,40s180,18.54,180,142.712  c0,123.803-112.775,142.288-180,142.288c-20.573,0-37.853-1.236-52.823-3.778l-11.136-1.891l-7.369,8.559  C137.801,340.634,125.379,348.336,114.109,352.983z M417.624,428.276l-14.072,6.941l3.394,15.32  c1.001,4.521,2.103,8.778,3.26,12.761c-6.118-3.414-12.346-8.153-18.009-14.731l-7.369-8.559l-11.136,1.891  c-12.294,2.088-25.898,3.103-41.589,3.103c-40.318,0-74.173-8.263-97.902-23.895c-20.36-13.412-33.427-32.453-38.995-56.747  c7.847,0.424,16.118,0.639,24.897,0.639c62.59,0,115.531-14.291,153.104-41.327c21.357-15.369,37.891-34.807,49.141-57.774  c2.722-5.557,5.119-11.332,7.219-17.299c28.242,18.541,42.537,47.53,42.537,86.436C472.102,379.073,453.773,410.444,417.624,428.276  z M199.102,134.994h-40c0-16.977,7.291-33.24,20.003-44.62c12.762-11.424,29.871-16.894,46.928-14.997  c27.541,3.056,49.719,25.183,52.735,52.613c2.754,25.045-11.627,42.708-22.683,53.815c-2.708,2.721-5.19,5.088-7.381,7.177  c-9.6,9.154-9.6,9.516-9.6,13.937v13h-40v-13c0-21.909,11.181-32.571,21.994-42.884c2.112-2.014,4.296-4.097,6.637-6.448  c10.797-10.847,11.757-16.815,11.272-21.225c-0.987-8.975-8.299-16.222-17.386-17.229c-5.855-0.651-11.479,1.143-15.838,5.044  C201.475,124.034,199.102,129.297,199.102,134.994z M199.102,245.002h40v40h-40V245.002z"/>















</svg>
