<svg height="480pt" viewBox="0 0 480.00239 480" width="480pt" xmlns="http://www.w3.org/2000/svg"><path d="m384.003906 0h-208c-7.027344.00390625-13.929687 1.867188-20 5.402344l8 13.800781c3.644532-2.109375 7.785156-3.214844 12-3.203125h208c13.253906 0 24 10.746094 24 24v8h-152v16h152v244.6875l-54.34375-54.34375c-.257812-.253906-.570312-.429688-.800781-.679688l6.933594-27.726562 6.457031-25.9375h17.753906v-16h-24c-3.671875.003906-6.871094 2.503906-7.761718 6.066406l-6.480469 25.933594h-137.757813c-2.464844 0-4.789062 1.136719-6.304687 3.078125s-2.054688 4.46875-1.457031 6.859375l16 64c.890624 3.5625 4.089843 6.0625 7.761718 6.0625h71.613282c1.695312 3.570312 3.96875 6.832031 6.730468 9.65625l6.34375 6.34375h-92.6875v16h108.6875l41.335938 41.335938-3.554688 6.21875c-16.578125 28.757812-14.402344 64.628906 5.53125 91.175781v13.269531h16v-16c0-1.816406-.617187-3.578125-1.753906-5-17.363281-21.539062-19.703125-51.53125-5.886719-75.503906l6.582031-11.527344c1.777344-3.125 1.25-7.050781-1.285156-9.597656l-68-68c-7.710937-7.960938-7.613281-20.628906.222656-28.464844 7.835938-7.835938 20.507813-7.933594 28.464844-.226562l84 84 11.3125-11.308594-13.65625-13.683594v-284.6875c-.027344-22.078125-17.921875-39.9726562-40-40zm-95.066406 280h-17.871094l-2-16h21.871094zm-21.871094-32-2-16h29.871094l-2 16zm-18.128906-16 2 16h-28.6875l-4-16zm-18.6875 48-4-16h26.6875l2 16zm81.007812-32h-2.191406l2-16h30.695313l-3.359375 13.417969c-9.039063-2.710938-18.777344-1.78125-27.144532 2.582031zm0 0"/><path d="m136.003906 272v168c.023438 22.082031 17.917969 39.976562 40 40h176v-16h-176c-13.257812 0-24-10.742188-24-24v-24h184v-16h-184v-128zm0 0"/><path d="m272.003906 432h16v16h-16zm0 0"/><path d="m446.164062 247.839844-12.320312 10.226562 12.34375 14.878906c11.484375 13.125 17.816406 29.972657 17.816406 47.414063v159.640625h16v-159.640625c.019532-21.238281-7.65625-41.769531-21.601562-57.789063zm0 0"/><path d="m256.003906 352c0 8.835938-7.164062 16-16 16-8.839844 0-16-7.164062-16-16s7.160156-16 16-16c8.835938 0 16 7.164062 16 16zm0 0"/><path d="m336.003906 352c0 8.835938-7.164062 16-16 16-8.839844 0-16-7.164062-16-16s7.160156-16 16-16c8.835938 0 16 7.164062 16 16zm0 0"/><path d="m272.003906 136v28.6875l-10.34375-10.34375-11.3125 11.3125 24 24c3.121094 3.125 8.1875 3.125 11.3125 0l24-24-11.3125-11.3125-10.34375 10.34375v-28.6875zm0 0"/><path d="m26.097656 155.304688-9.640625 30.296874c-.671875 2.144532-.410156 4.476563.71875 6.417969 1.132813 1.945313 3.027344 3.324219 5.226563 3.796875l31.03125 6.785156 6.753906 31c.480469 2.199219 1.867188 4.09375 3.816406 5.21875 1.949219 1.125 4.285156 1.378907 6.429688.691407l30.265625-9.636719 21.390625 23.484375c1.515625 1.664063 3.664062 2.613281 5.914062 2.613281s4.394532-.949218 5.910156-2.613281l21.390626-23.484375 30.296874 9.671875c2.144532.683594 4.480469.433594 6.429688-.691406 1.953125-1.128907 3.339844-3.023438 3.820312-5.222657l6.78125-31.03125 31.035157-6.785156c2.199219-.480468 4.09375-1.867187 5.21875-3.816406s1.375-4.285156.691406-6.429688l-9.640625-30.265624 23.488281-21.390626c1.664063-1.515624 2.609375-3.664062 2.609375-5.914062s-.945312-4.394531-2.609375-5.910156l-23.488281-21.394532 9.609375-30.292968c.671875-2.148438.414063-4.476563-.71875-6.421875-1.128906-1.941407-3.027344-3.320313-5.226563-3.796875l-31.03125-6.78125-6.753906-31c-.472656-2.199219-1.851562-4.097656-3.792968-5.226563-1.945313-1.132812-4.277344-1.390625-6.421876-.71875l-30.261718 9.601563-21.425782-23.449219c-1.550781-1.597656-3.683593-2.496094-5.910156-2.496094-2.226562 0-4.359375.898438-5.914062 2.496094l-21.390625 23.488281-30.296875-9.640625c-2.144532-.671875-4.476563-.414062-6.417969.71875-1.945313 1.128907-3.324219 3.027344-3.796875 5.226563l-6.785156 31-31 6.78125c-2.199219.476562-4.09375 1.855468-5.226563 3.796875-1.128906 1.945312-1.390625 4.273437-.71875 6.421875l9.601563 30.261718-23.449219 21.425782c-1.660156 1.515625-2.609375 3.660156-2.609375 5.910156s.949219 4.398438 2.609375 5.914062zm14.570313-46.230469c2.308593-2.105469 3.179687-5.367188 2.230469-8.34375l-8.496094-26.792969 27.464844-6.007812c3.046874-.671876 5.425781-3.050782 6.09375-6.097657l5.976562-27.429687 26.792969 8.527344c2.980469.9375 6.230469.066406 8.34375-2.234376l18.929687-20.8125 18.925782 20.796876c2.113281 2.300781 5.367187 3.171874 8.34375 2.234374l26.792968-8.511718 6.007813 27.460937c.667969 3.046875 3.050781 5.429688 6.097656 6.097657l27.460937 6.007812-8.527343 26.792969c-.949219 2.976562-.078125 6.238281 2.234375 8.34375l20.78125 18.894531-20.796875 18.929688c-2.3125 2.105468-3.183594 5.363281-2.234375 8.34375l8.511718 26.792968-27.464843 6.007813c-3.046875.667969-5.425781 3.046875-6.09375 6.09375l-5.976563 27.433593-26.792968-8.527343c-2.976563-.953125-6.238282-.078125-8.34375 2.230469l-18.925782 20.816406-18.929687-20.800782c-1.515625-1.660156-3.664063-2.609374-5.910157-2.605468-.816406 0-1.625.125-2.402343.375l-26.824219 8.511718-6.007812-27.464843c-.667969-3.046875-3.046876-5.425781-6.09375-6.09375l-27.433594-5.976563 8.527344-26.792968c.949218-2.980469.078124-6.238282-2.230469-8.34375l-20.816407-18.929688zm0 0"/><path d="m82.34375 162.34375 80-80 11.3125 11.316406-79.996094 79.996094zm0 0"/><path d="m88.003906 128c13.253906 0 24-10.742188 24-24 0-13.253906-10.746094-24-24-24-13.257812 0-24 10.746094-24 24 0 13.257812 10.742188 24 24 24zm0-32c4.417969 0 8 3.582031 8 8s-3.582031 8-8 8c-4.417968 0-8-3.582031-8-8s3.582032-8 8-8zm0 0"/><path d="m144.003906 152c0 13.257812 10.742188 24 24 24 13.253906 0 24-10.742188 24-24 0-13.253906-10.746094-24-24-24-13.257812 0-24 10.746094-24 24zm32 0c0 4.417969-3.582031 8-8 8-4.417968 0-8-3.582031-8-8s3.582032-8 8-8c4.417969 0 8 3.582031 8 8zm0 0"/></svg>