<?xml version="1.0" encoding="utf-8"?>
<!-- Generator: Adobe Illustrator 25.0.1, SVG Export Plug-In . SVG Version: 6.00 Build 0)  -->
<svg version="1.1" id="Layer_1" xmlns="http://www.w3.org/2000/svg" xmlns:xlink="http://www.w3.org/1999/xlink" x="0px" y="0px"
	 viewBox="0 0 512 512" style="enable-background:new 0 0 512 512;" xml:space="preserve">
<g>
	<g>
		<g>
			<path d="M289,287.8v25.9h15.7v-25.9H289z M300.5,305h-8.6v-8.6h8.6V305z M304.6,348.1v-8.6h-12.8c-1.1,0-2.1,0.4-2.9,1.1V465
				h-1.4v8.1c0,2.4,1.9,4.3,4.3,4.3h12.8v-8.6h-8.5V374h8.5v-8.6h-8.5v-17.2H304.6z M275.9,0H46C30.2,0,17.3,12.9,17.3,28.7V512h47
				v-31.3h193.3V512h47v-8.8h-25.7c-2.4,0-4.3-1.9-4.3-4.3v-2.6h-1.3v-15.7h1.3V465H33V219.5h256v59.7h15.7v-8.6h-12.8v-4.3
				c0-2.4,1.9-4.3,4.3-4.3h8.5V28.7C304.6,12.9,291.7,0,275.9,0z M48.6,480.7v15.7H33v-15.7H48.6z M33,28.7
				c0-7.2,5.9-13.1,13.1-13.1h229.9c7.2,0,13.1,5.9,13.1,13.1v149H33V28.7z M33,203.8v-10.5h256v10.5H33z M289,322.3v8.6h15.7v-8.6
				H289z"/>
		</g>
	</g>
	<g>
		<g>
			<path d="M85.2,61.7c-10.7,0-19.3,8.7-19.3,19.3v60.6c0,10.7,8.7,19.3,19.3,19.3c10.7,0,19.3-8.7,19.3-19.3V81.1
				C104.6,70.4,95.9,61.7,85.2,61.7z M88.9,141.7c0,2-1.6,3.7-3.7,3.7c-2,0-3.6-1.6-3.6-3.7V81.1c0-2,1.6-3.7,3.6-3.7
				c2,0,3.7,1.6,3.7,3.7V141.7z"/>
		</g>
	</g>
	<g>
		<g>
			<path d="M85.2,236.2c-10.7,0-19.3,8.7-19.3,19.3v60.6c0,10.7,8.7,19.3,19.3,19.3c10.7,0,19.3-8.7,19.3-19.3v-60.6
				C104.6,244.9,95.9,236.2,85.2,236.2z M88.9,316.2c0,2-1.6,3.7-3.7,3.7c-2,0-3.6-1.6-3.6-3.7v-60.6c0-2,1.6-3.7,3.6-3.7
				c2,0,3.7,1.6,3.7,3.7V316.2z"/>
		</g>
	</g>
</g>
<g>
	<g>
		<g>
			<path d="M477.1,270.6H278.9c-7.1,0-12.9,5.8-12.9,12.9v215.4c0,7.1,5.8,12.9,12.9,12.9h198.2c7.1,0,12.9-5.8,12.9-12.9V283.5
				C490,276.4,484.2,270.6,477.1,270.6z M481.4,498.9c0,2.4-1.9,4.3-4.3,4.3H278.9c-2.4,0-4.3-1.9-4.3-4.3V283.5
				c0-2.4,1.9-4.3,4.3-4.3h198.2c2.4,0,4.3,1.9,4.3,4.3V498.9z"/>
		</g>
	</g>
	<g>
		<g>
			<path d="M356.5,253.3h-60.3c-2.7,0-5.1,0.8-7.2,2.2c-3.5,2.3-5.7,6.3-5.7,10.7v8.6c0,2.4,1.9,4.3,4.3,4.3h77.5
				c2.4,0,4.3-1.9,4.3-4.3v-8.6C369.4,259.1,363.6,253.3,356.5,253.3z M291.8,270.6v-4.3c0-2.4,1.9-4.3,4.3-4.3h60.3
				c2.4,0,4.3,1.9,4.3,4.3v4.3H291.8z"/>
		</g>
	</g>
	<g>
		<g>
			<path d="M459.8,253.3h-60.3c-7.1,0-12.9,5.8-12.9,12.9v8.6c0,2.4,1.9,4.3,4.3,4.3h77.5c2.4,0,4.3-1.9,4.3-4.3v-8.6
				C472.8,259.1,467,253.3,459.8,253.3z M395.2,270.6v-4.3c0-2.4,1.9-4.3,4.3-4.3h60.3c2.4,0,4.3,1.9,4.3,4.3v4.3H395.2z"/>
		</g>
	</g>
	<g>
		<g>
			<path d="M477.1,270.6H278.9c-7.1,0-12.9,5.8-12.9,12.9v43.1c0,2.4,1.9,4.3,4.3,4.3h215.4c2.4,0,4.3-1.9,4.3-4.3v-43.1
				C490,276.4,484.2,270.6,477.1,270.6z M481.4,322.3H274.6v-38.8c0-2.4,1.9-4.3,4.3-4.3h198.2c2.4,0,4.3,1.9,4.3,4.3V322.3z"/>
		</g>
	</g>
	<g>
		<g>
			<path d="M399.5,287.8h-43.1c-2.4,0-4.3,1.9-4.3,4.3v17.2c0,2.4,1.9,4.3,4.3,4.3h43.1c2.4,0,4.3-1.9,4.3-4.3v-17.2
				C403.8,289.7,401.9,287.8,399.5,287.8z M395.2,305h-34.5v-8.6h34.5V305z"/>
		</g>
	</g>
	<g>
		<g>
			<path d="M339.2,287.8H322c-2.4,0-4.3,1.9-4.3,4.3v17.2c0,2.4,1.9,4.3,4.3,4.3h17.2c2.4,0,4.3-1.9,4.3-4.3v-17.2
				C343.5,289.7,341.6,287.8,339.2,287.8z M334.9,305h-8.6v-8.6h8.6V305z"/>
		</g>
	</g>
	<g>
		<g>
			<path d="M304.8,287.8h-17.2c-2.4,0-4.3,1.9-4.3,4.3v17.2c0,2.4,1.9,4.3,4.3,4.3h17.2c2.4,0,4.3-1.9,4.3-4.3v-17.2
				C309.1,289.7,307.2,287.8,304.8,287.8z M300.5,305h-8.6v-8.6h8.6V305z"/>
		</g>
	</g>
	<g>
		<g>
			<path d="M468.5,287.8h-17.2c-2.4,0-4.3,1.9-4.3,4.3v17.2c0,2.4,1.9,4.3,4.3,4.3h17.2c2.4,0,4.3-1.9,4.3-4.3v-17.2
				C472.8,289.7,470.8,287.8,468.5,287.8z M464.2,305h-8.6v-8.6h8.6V305z"/>
		</g>
	</g>
	<g>
		<g>
			<path d="M434,287.8h-17.2c-2.4,0-4.3,1.9-4.3,4.3v17.2c0,2.4,1.9,4.3,4.3,4.3H434c2.4,0,4.3-1.9,4.3-4.3v-17.2
				C438.3,289.7,436.4,287.8,434,287.8z M429.7,305h-8.6v-8.6h8.6V305z"/>
		</g>
	</g>
	<g>
		<g>
			<path d="M464.2,339.5H291.8c-1.1,0-2.1,0.4-2.9,1.1c-0.9,0.8-1.4,1.9-1.4,3.2v25.9c0,1.3,0.5,2.4,1.4,3.2
				c0.8,0.7,1.8,1.1,2.9,1.1h172.3c2.4,0,4.3-1.9,4.3-4.3v-25.9C468.5,341.4,466.5,339.5,464.2,339.5z M296.2,365.3v-17.2h163.7
				v17.2H296.2z"/>
		</g>
	</g>
	<g>
		<g>
			<path d="M464.2,365.3H291.8c-1.1,0-2.1,0.4-2.9,1.1c-0.9,0.8-1.4,1.9-1.4,3.2V473c0,2.4,1.9,4.3,4.3,4.3h172.3
				c2.4,0,4.3-1.9,4.3-4.3V369.7C468.5,367.3,466.5,365.3,464.2,365.3z M459.8,468.7H296.2V374h163.7V468.7z"/>
		</g>
	</g>
	<g>
		<g>
			<path d="M300.5,503.2v4.3c0,2.3,1.8,4.2,4.2,4.3c0,0,0.1,0,0.2,0h38.8c2.4,0,4.3-1.9,4.3-4.3v-4.3H300.5z"/>
		</g>
	</g>
	<g>
		<g>
			<path d="M333.7,383.8c-1.7-1.7-4.4-1.7-6.1,0L306,405.4c-1.7,1.7-1.7,4.4,0,6.1c0.8,0.8,1.9,1.3,3,1.3c1.1,0,2.2-0.4,3-1.3
				l21.5-21.5C335.3,388.2,335.3,385.5,333.7,383.8z"/>
		</g>
	</g>
	<g>
		<g>
			<path d="M355.2,383.8c-1.7-1.7-4.4-1.7-6.1,0l-12.9,12.9c-1.7,1.7-1.7,4.4,0,6.1c0.8,0.8,1.9,1.3,3,1.3c1.1,0,2.2-0.4,3-1.3
				l12.9-12.9C356.9,388.2,356.9,385.5,355.2,383.8z"/>
		</g>
	</g>
	<g>
		<g>
			<path d="M320.7,418.3c-1.7-1.7-4.4-1.7-6.1,0l-8.6,8.6c-1.7,1.7-1.7,4.4,0,6.1c0.8,0.8,1.9,1.3,3,1.3c1.1,0,2.2-0.4,3-1.3
				l8.6-8.6C322.4,422.7,322.4,420,320.7,418.3z"/>
		</g>
	</g>
	<g>
		<g>
			<path d="M333.7,405.4c-1.7-1.7-4.4-1.7-6.1,0l-4.3,4.3c-1.7,1.7-1.7,4.4,0,6.1c0.8,0.8,1.9,1.3,3,1.3c1.1,0,2.2-0.4,3-1.3
				l4.3-4.3C335.3,409.8,335.3,407.1,333.7,405.4z"/>
		</g>
	</g>
</g>
</svg>
