<svg height="512pt" viewBox="0 -60 512 512" width="512pt" xmlns="http://www.w3.org/2000/svg"><path d="m92.703125 371.78125c-1.128906-3.199219-1.703125-6.5625-1.703125-10.003906 0-16.539063 13.457031-30 30-30s30 13.460937 30 30c0 3.441406-.574219 6.804687-1.703125 10.003906l-7.066406 19.996094h369.769531v-240h-.628906c-4.53125-55.566406-34.050782-106.144532-80.933594-137.402344l-21.5625-14.375-396.648438 151.777344h-12.226562v240h99.769531zm312.421875-338.226562 8.671875 5.78125c38.511719 25.675781 63.019531 66.941406 67.464844 112.441406h-68.035157l7.070313 20c1.128906 3.199218 1.703125 6.5625 1.703125 10 0 16.542968-13.460938 30-30 30-16.542969 0-30-13.457032-30-30 0-3.4375.570312-6.804688 1.703125-10l7.066406-20h-274.597656zm-344.125 328.222656h-31v-180h302c0 33.085937 26.914062 60 60 60s60-26.914063 60-60h30v180h-301c0-33.082032-26.914062-60-60-60s-60 26.917968-60 60zm0 0"/><path d="m196 301.777344c24.8125 0 45-20.1875 45-45s-20.1875-45-45-45-45 20.1875-45 45 20.1875 45 45 45zm0-60c8.269531 0 15 6.730468 15 15 0 8.273437-6.730469 15-15 15s-15-6.726563-15-15c0-8.269532 6.730469-15 15-15zm0 0"/><path d="m317 331.777344c24.8125 0 45-20.1875 45-45s-20.1875-45-45-45-45 20.1875-45 45 20.1875 45 45 45zm0-60c8.269531 0 15 6.730468 15 15 0 8.273437-6.730469 15-15 15s-15-6.726563-15-15c0-8.269532 6.730469-15 15-15zm0 0"/><path d="m422 301.777344h30v30h-30zm0 0"/><path d="m91 211.777344h30v30h-30zm0 0"/><path d="m392 61.777344h30v30h-30zm0 0"/><path d="m302 91.777344h30v30h-30zm0 0"/></svg>