<svg id="Capa_1" enable-background="new 0 0 512.011 512.011" height="512" viewBox="0 0 512.011 512.011" width="512" xmlns="http://www.w3.org/2000/svg"><g><g><path d="m485.339 182.04h-26.59l-89.557-71.619c-2.68-2.142-5.548-4.077-8.526-5.751-3.61-2.03-8.183-.75-10.213 2.862-2.03 3.61-.749 8.183 2.862 10.213 2.272 1.277 4.463 2.756 6.51 4.392l74.907 59.903h-108.685v-34.066c0-13.015 1.253-26.093 3.724-38.871l7.296-37.736c.102-.509.162-45.423.162-45.423 0-14.305-11.638-25.944-25.944-25.944h-275.719c-14.312 0-25.955 11.639-25.955 25.944.087 1.163-.169 43.955.092 45.019l6.45 41.697c1.597 10.323 2.406 20.854 2.406 31.3v251.473c0 4.142 3.358 7.5 7.5 7.5s7.5-3.358 7.5-7.5v-251.472c0-11.211-.869-22.514-2.583-33.593l-5.112-33.05h294.775l-5.596 28.938c-2.651 13.714-3.996 27.75-3.996 41.718v278.37c0 13.968 1.345 28.004 3.996 41.718 3.182 14.496-9.044 29.31-23.879 28.938h-79.845-157.082c-17.011.368-28.106-17.434-23.261-33.051 1.714-11.08 2.583-22.382 2.583-33.593 0-4.142-3.358-7.5-7.5-7.5s-7.5 3.358-7.5 7.5c0 10.446-.81 20.977-2.407 31.301-6.789 24.42 12.328 50.959 38.085 50.343h394.012c23.98.602 43.752-23.356 38.604-46.785-2.471-12.766-3.724-25.846-3.724-38.875v-158.47h2.21c9.424 0 17.09-7.667 17.09-17.09v-51.66c0-9.418-7.666-17.08-17.09-17.08zm-280.344-167.04v13.444c0 1.494-1.215 2.709-2.709 2.709h-54.798c-1.494 0-2.709-1.215-2.709-2.709v-13.444zm-169.429 0h94.212v13.444c0 9.765 7.944 17.709 17.709 17.709h54.798c9.765 0 17.709-7.944 17.709-17.709v-13.444h91.29c6.035 0 10.945 4.91 10.945 10.944v36.373h-297.618v-36.373c0-6.034 4.914-10.944 10.955-10.944zm436.56 453.065c3.184 14.49-9.049 29.307-23.877 28.935h-126.206c7.083-8.989 9.907-20.516 7.728-31.786-2.471-12.778-3.724-25.856-3.724-38.871v-158.473h142.082v158.47c0 13.983 1.345 28.022 3.997 41.725zm15.303-217.285c0 1.153-.938 2.09-2.09 2.09h-159.292v-55.83h159.292c1.153 0 2.09.933 2.09 2.08z"/><path d="m241.177 365.321c-8.764 1.856-17.7 4.779-26.558 8.688-3.79 1.672-5.506 6.1-3.834 9.89 1.675 3.828 6.191 5.493 9.89 3.834 7.913-3.492 15.856-6.095 23.61-7.736 4.052-.858 6.642-4.839 5.784-8.891-.859-4.053-4.838-6.642-8.892-5.785z"/><path d="m248.803 305.211c-7.148-11.054-26.523-9.904-46.071 2.734-8.229 5.32-15.069 11.924-19.262 18.595-7.1 11.3-4.39 18.819-2.143 22.295 3.281 5.075 9.138 7.577 16.408 7.577 8.565 0 19.09-3.476 29.664-10.312 19.549-12.638 28.551-29.834 21.404-40.889zm-29.547 28.293c-13.805 8.925-24.003 8.507-25.312 7.224-.679-1.789 3.126-11.262 16.931-20.187 9.662-6.247 17.558-7.916 21.875-7.916 1.851 0 3.044.307 3.437.691.678 1.791-3.127 11.264-16.931 20.188z"/><path d="m280.807 241.264c-1.82-3.717-6.837-9.919-20.21-9.653-7.877.155-17.062 2.613-25.862 6.924-20.905 10.24-31.876 26.252-26.086 38.074 3.149 6.429 10.317 9.701 19.564 9.701 7.755 0 16.973-2.302 26.508-6.972 20.906-10.24 31.877-26.252 26.086-38.074zm-58.671 28.786c-.462-1.856 4.436-10.813 19.198-18.044 8.574-4.2 15.568-5.413 20.149-5.413 3.306 0 5.357.632 5.838 1.23.462 1.856-4.436 10.813-19.198 18.044-14.764 7.231-24.842 5.609-25.987 4.183z"/><path d="m119.776 246.385c-12.81 3.031-18.218 21.672-12.858 44.325 2.255 9.536 6.186 18.193 11.067 24.378 6.336 8.028 12.51 9.883 16.862 9.883 1.327 0 2.485-.172 3.426-.395 4.028-.953 11.189-4.503 13.887-17.573 1.593-7.717 1.228-17.218-1.029-26.753-2.255-9.536-6.186-18.193-11.067-24.378-8.267-10.475-16.261-10.44-20.288-9.487zm3.429 14.603c1.94 0 9.557 6.766 13.331 22.715 3.784 15.996-.027 25.466-1.673 26.269-.006 0-.011 0-.017 0-1.94 0-9.557-6.766-13.331-22.715-3.785-15.997.027-25.467 1.673-26.269z"/><path d="m163.382 254.454c1.753 0 3.486-.299 5.172-.916 3.888-1.422 10.579-5.794 11.713-19.091.669-7.851-.816-17.242-4.183-26.444-7.999-21.861-22.776-34.444-35.139-29.923-3.887 1.422-10.578 5.794-11.713 19.091-.669 7.851.816 17.242 4.183 26.444 6.908 18.88 18.87 30.839 29.967 30.839zm-17.323-62.275c.042-.006.085-.009.133-.009 2.125 0 10.28 5.886 15.806 20.988 5.648 15.437 2.983 25.292 1.443 26.282-1.911.264-10.29-5.542-15.938-20.979-5.649-15.436-2.984-25.291-1.444-26.282z"/><path d="m84.698 296.99c-3.289-2.51-7.988-1.88-10.503 1.407s-1.889 7.993 1.395 10.511c.464.356 46.27 36.075 59.972 95.588-1.849 12.96-2.913 25.996-2.913 38.85 0 3.227 2.066 6.09 5.127 7.112.78.26 1.58.386 2.372.386 2.315 0 4.556-1.074 6-2.997.172-.229 17.522-23.134 44.408-42.578 3.356-2.427 4.109-7.116 1.682-10.472-2.426-3.356-7.116-4.11-10.472-1.682-13.741 9.937-25.034 20.568-33.17 29.081 7.848-90.282 62.13-185.72 74.028-205.701.932.145 1.892.218 2.877.218 9.852 0 22.14-7.203 32.742-20.031 6.242-7.553 10.774-15.912 12.76-23.536 3.364-12.915-1.487-19.267-4.678-21.904-10.148-8.385-28.274-1.448-43.104 16.496-6.242 7.553-10.774 15.912-12.76 23.536-1.856 7.125-1.206 12.245.281 15.853-4.971 8.185-21.501 36.29-38.252 74.662-10.928 25.036-23.113 57.374-31.096 91.809-19.736-47.949-54.939-75.266-56.696-76.608zm150.085-119.697c9.347-11.309 18.198-14.656 21.154-14.656.356 0 .627.048.802.138 1.186 1.501.414 11.68-10.059 24.351-10.472 12.671-20.325 15.347-21.956 14.518-1.186-1.501-.413-11.681 10.059-24.351z"/><ellipse cx="347.888" cy="141.82" rx="7.432" ry="7.431" transform="matrix(.099 -.995 .995 .099 172.478 474.04)"/><circle cx="372.399" cy="158.683" r="7.431"/><path d="m432.112 457.64h-29.826c-4.142 0-7.5 3.358-7.5 7.5s3.358 7.5 7.5 7.5h29.826c4.142 0 7.5-3.358 7.5-7.5s-3.358-7.5-7.5-7.5z"/></g></g></svg>