<?xml version="1.0" encoding="iso-8859-1"?>
<!-- Generator: Adobe Illustrator 19.0.0, SVG Export Plug-In . SVG Version: 6.00 Build 0)  -->
<svg version="1.1" id="Capa_1" xmlns="http://www.w3.org/2000/svg" xmlns:xlink="http://www.w3.org/1999/xlink" x="0px" y="0px"
	 viewBox="0 0 512 512" style="enable-background:new 0 0 512 512;" xml:space="preserve">
<g>
	<g>
		<path d="M452.267,34.133H59.733c-14.114,0-25.6,11.486-25.6,25.6V486.4c0,14.114,11.486,25.6,25.6,25.6h392.533
			c14.114,0,25.6-11.486,25.6-25.6V59.733C477.867,45.619,466.381,34.133,452.267,34.133z M460.8,486.4
			c0,4.702-3.823,8.533-8.533,8.533H59.733c-4.71,0-8.533-3.831-8.533-8.533V59.733c0-4.702,3.823-8.533,8.533-8.533h392.533
			c4.71,0,8.533,3.831,8.533,8.533V486.4z"/>
	</g>
</g>
<g>
	<g>
		<path d="M213.333,0H93.867c-14.114,0-25.6,11.486-25.6,25.6v17.067c0,4.71,3.814,8.533,8.533,8.533h153.6
			c4.719,0,8.533-3.823,8.533-8.533V25.6C238.933,11.486,227.447,0,213.333,0z M221.867,34.133H85.333V25.6
			c0-4.702,3.823-8.533,8.533-8.533h119.467c4.71,0,8.533,3.831,8.533,8.533V34.133z"/>
	</g>
</g>
<g>
	<g>
		<path d="M418.133,0H298.667c-14.114,0-25.6,11.486-25.6,25.6v17.067c0,4.71,3.814,8.533,8.533,8.533h153.6
			c4.719,0,8.533-3.823,8.533-8.533V25.6C443.733,11.486,432.247,0,418.133,0z M426.667,34.133H290.133V25.6
			c0-4.702,3.823-8.533,8.533-8.533h119.467c4.71,0,8.533,3.831,8.533,8.533V34.133z"/>
	</g>
</g>
<g>
	<g>
		<path d="M452.267,34.133H59.733c-14.114,0-25.6,11.486-25.6,25.6v85.333c0,4.71,3.814,8.533,8.533,8.533h426.667
			c4.719,0,8.533-3.823,8.533-8.533V59.733C477.867,45.619,466.381,34.133,452.267,34.133z M460.8,136.533H51.2v-76.8
			c0-4.702,3.823-8.533,8.533-8.533h392.533c4.71,0,8.533,3.831,8.533,8.533V136.533z"/>
	</g>
</g>
<g>
	<g>
		<path d="M298.667,68.267h-85.333c-4.719,0-8.533,3.823-8.533,8.533v34.133c0,4.71,3.814,8.533,8.533,8.533h85.333
			c4.719,0,8.533-3.823,8.533-8.533V76.8C307.2,72.09,303.386,68.267,298.667,68.267z M290.133,102.4h-68.267V85.333h68.267V102.4z"
			/>
	</g>
</g>
<g>
	<g>
		<path d="M179.2,68.267h-34.133c-4.719,0-8.533,3.823-8.533,8.533v34.133c0,4.71,3.814,8.533,8.533,8.533H179.2
			c4.719,0,8.533-3.823,8.533-8.533V76.8C187.733,72.09,183.919,68.267,179.2,68.267z M170.667,102.4H153.6V85.333h17.067V102.4z"/>
	</g>
</g>
<g>
	<g>
		<path d="M110.933,68.267H76.8c-4.719,0-8.533,3.823-8.533,8.533v34.133c0,4.71,3.814,8.533,8.533,8.533h34.133
			c4.719,0,8.533-3.823,8.533-8.533V76.8C119.467,72.09,115.652,68.267,110.933,68.267z M102.4,102.4H85.333V85.333H102.4V102.4z"/>
	</g>
</g>
<g>
	<g>
		<path d="M435.2,68.267h-34.133c-4.719,0-8.533,3.823-8.533,8.533v34.133c0,4.71,3.814,8.533,8.533,8.533H435.2
			c4.719,0,8.533-3.823,8.533-8.533V76.8C443.733,72.09,439.919,68.267,435.2,68.267z M426.667,102.4H409.6V85.333h17.067V102.4z"/>
	</g>
</g>
<g>
	<g>
		<path d="M366.933,68.267H332.8c-4.719,0-8.533,3.823-8.533,8.533v34.133c0,4.71,3.814,8.533,8.533,8.533h34.133
			c4.719,0,8.533-3.823,8.533-8.533V76.8C375.467,72.09,371.652,68.267,366.933,68.267z M358.4,102.4h-17.067V85.333H358.4V102.4z"
			/>
	</g>
</g>
<g>
	<g>
		<path d="M426.667,170.667H85.333c-4.719,0-8.533,3.823-8.533,8.533v51.2c0,4.71,3.814,8.533,8.533,8.533h341.333
			c4.719,0,8.533-3.823,8.533-8.533v-51.2C435.2,174.49,431.386,170.667,426.667,170.667z M418.133,221.867H93.867v-34.133h324.267
			V221.867z"/>
	</g>
</g>
<g>
	<g>
		<path d="M426.667,221.867H85.333c-4.719,0-8.533,3.823-8.533,8.533v204.8c0,4.71,3.814,8.533,8.533,8.533h341.333
			c4.719,0,8.533-3.823,8.533-8.533V230.4C435.2,225.69,431.386,221.867,426.667,221.867z M418.133,426.667H93.867V238.933h324.267
			V426.667z"/>
	</g>
</g>
<g>
	<g>
		<path d="M170.667,460.8H128c-14.114,0-25.6,11.486-25.6,25.6v17.067c0,4.71,3.814,8.533,8.533,8.533h76.8
			c4.719,0,8.533-3.823,8.533-8.533V486.4C196.267,472.286,184.781,460.8,170.667,460.8z M179.2,494.933h-59.733V486.4
			c0-4.702,3.823-8.533,8.533-8.533h42.667c4.71,0,8.533,3.831,8.533,8.533V494.933z"/>
	</g>
</g>
<g>
	<g>
		<path d="M168.166,258.5c-3.337-3.336-8.73-3.336-12.066,0l-42.667,42.667c-3.337,3.337-3.337,8.73,0,12.066
			c1.664,1.664,3.849,2.5,6.033,2.5c2.185,0,4.369-0.836,6.033-2.5l42.667-42.667C171.503,267.23,171.503,261.837,168.166,258.5z"/>
	</g>
</g>
<g>
	<g>
		<path d="M210.833,258.5c-3.337-3.336-8.73-3.336-12.066,0l-25.6,25.6c-3.337,3.337-3.337,8.73,0,12.066
			c1.664,1.664,3.849,2.5,6.033,2.5c2.185,0,4.369-0.836,6.033-2.5l25.6-25.6C214.17,267.23,214.17,261.837,210.833,258.5z"/>
	</g>
</g>
<g>
	<g>
		<path d="M142.566,326.767c-3.337-3.337-8.73-3.337-12.066,0l-17.067,17.067c-3.337,3.337-3.337,8.73,0,12.066
			c1.664,1.664,3.849,2.5,6.033,2.5c2.185,0,4.369-0.836,6.033-2.5l17.067-17.067C145.903,335.497,145.903,330.103,142.566,326.767z
			"/>
	</g>
</g>
<g>
	<g>
		<path d="M168.166,301.167c-3.337-3.336-8.73-3.336-12.066,0l-8.533,8.533c-3.336,3.337-3.336,8.73,0,12.066
			c1.664,1.664,3.849,2.5,6.033,2.5c2.185,0,4.369-0.836,6.033-2.5l8.533-8.533C171.503,309.897,171.503,304.503,168.166,301.167z"
			/>
	</g>
</g>
<g>
</g>
<g>
</g>
<g>
</g>
<g>
</g>
<g>
</g>
<g>
</g>
<g>
</g>
<g>
</g>
<g>
</g>
<g>
</g>
<g>
</g>
<g>
</g>
<g>
</g>
<g>
</g>
<g>
</g>
</svg>
