<?xml version="1.0" encoding="utf-8"?>
<!-- Generator: Adobe Illustrator 25.0.1, SVG Export Plug-In . SVG Version: 6.00 Build 0)  -->
<svg version="1.1" id="Layer_3" xmlns="http://www.w3.org/2000/svg" xmlns:xlink="http://www.w3.org/1999/xlink" x="0px" y="0px"
	 viewBox="0 0 512 512" style="enable-background:new 0 0 512 512;" xml:space="preserve">
<style type="text/css">
	.st0{fill:none;stroke:#000000;stroke-width:8;stroke-miterlimit:10;}
</style>
<g>
	<path d="M202.2,56H16c-4.4,0-8,3.6-8,8v112c0,4.4,3.6,8,8,8h24v312c0,4.4,3.6,8,8,8h416c4.4,0,8-3.6,8-8V184h24c4.4,0,8-3.6,8-8V64
		c0-4.4-3.6-8-8-8H309.8H202.2z M56,216h400v112H56V216z M216,488h-48V376h48V488z M152,488h-48V376h48V488z M408,488h-48V376h48
		V488z M344,488h-48V376h48V488z M424,488V368c0-4.4-3.6-8-8-8H288c-4.4,0-8,3.6-8,8v120h-48V368c0-4.4-3.6-8-8-8H96
		c-4.4,0-8,3.6-8,8v120H56V344h400v144H424z M456,200H56v-16h400V200z M312.1,72H488v96H24V72h175.9L312.1,72z"/>
	<path d="M106.3,298.3l64-64l11.3,11.3l-64,64L106.3,298.3z"/>
	<path d="M218.3,298.3l64-64l11.3,11.3l-64,64L218.3,298.3z"/>
	<path d="M330.3,298.3l64-64l11.3,11.3l-64,64L330.3,298.3z"/>
</g>
<path class="st0" d="M341.3,156.5H126.7c-7.2,0-11.3-8.2-6.9-13.9l38-50c4.3-5.6,11-9,18.1-9h213.7c7.3,0,11.5,8.4,7.1,14.3
	l-38.1,50.1C354.4,153.3,348.1,156.5,341.3,156.5L341.3,156.5z"/>
<path d="M183,121.5l11.8-15.4h65.8l4.7-6.3h-70.8c-3.8,0-7.1,2.4-9.4,5.4l-11.2,14.6c-3,3.6-3.1,5-2.7,6.3c0.3,1.3,1.7,2.6,5.4,2.6
	h11.6c1.1-1.4,3.8-4.8,4.1-5.2h-8.7C182.5,123.5,182.1,122.5,183,121.5 M324.1,112l2.2-2.7h-8.5L303,128.8h9.2l7.9-10.4
	c1.3-1.7,2.7-2.9,4.4-3.5c2-0.8,5.3-0.9,7.5-0.5l1.5,0.3l4.5-5.9C338,108.7,328.8,108.6,324.1,112 M224.5,109.4h-13.6
	c-1.9,0-4.3,1.2-5.7,3.1l-9.6,12.5c0,0-1.1,1.3-0.7,2.5c0.3,0.8,0.8,1.4,2.7,1.4h15.2c1.6,0,3.7-1.1,4.8-2.6l9.4-12.2
	C228.6,111.8,226.6,109.4,224.5,109.4 M217.2,115.3l-6.2,8.1c-0.7,0.9-1.2,1.4-2.4,1.4h-2.7c-0.9,0-1.6-0.8-0.7-1.9l6.2-8.1
	c0.7-1,1.4-1.6,3.1-1.6h1.7C217.5,113.2,218,114.2,217.2,115.3 M307.5,109.4h-13.6c-1.9,0-4.3,1.2-5.7,3.1l-9.6,12.5
	c0,0-1.1,1.3-0.7,2.5c0.3,0.8,0.8,1.4,2.7,1.4h15.2c1.6,0,3.7-1.1,4.8-2.6l9.4-12.2C311.6,111.8,309.6,109.4,307.5,109.4
	 M300.2,115.3l-6.2,8.1c-0.7,0.9-1.2,1.4-2.4,1.4h-2.7c-0.9,0-1.6-0.8-0.7-1.9l6.2-8.1c0.7-1,1.4-1.6,3.1-1.6h1.7
	C300.6,113.2,301,114.2,300.2,115.3 M250.4,109.4c-1.5,0-3,0.1-4.5,0.5c-1.4,0.4-2.7,1-4,1.8l1.9-2.4h-8.8l-14.9,19.4h8.9l9.8-12.8
	c1.2-1.6,2.7-2.7,4.7-2.2c0.7,0.2,1.1,0.9,1.1,1.4c0.1,0.5,0,1-1,2.3l-8.6,11.3h8.6l10.8-14.3C255.9,112.8,256,109.4,250.4,109.4
	 M283.4,101.3l-8.1,10.6c-0.4-0.7-1.3-1.7-2.2-2.1c-0.9-0.4-2.1-0.5-3.6-0.5c-1.3,0-2.7,0-3.9,0.2c-1.5,0.2-3.7,1-4.6,2.2
	c-1.5,1.9-8,10.4-8.5,11.2c-1,1.6-0.5,3.3-0.1,4c0.8,1.4,2.4,2,3.3,2c0.2,0,3.5,0,3.8,0c1,0,3.2-0.7,4.4-1.9l-1.3,1.9h8.9l21-27.5
	H283.4L283.4,101.3z M271.3,117.1l-4.8,6.2c-0.2,0.3-0.7,0.8-1.3,1.2c-0.4,0.2-0.8,0.2-1.3,0.3h-2.5c-1.3,0-1.6-1.2-0.8-2.5l4.7-6.2
	c1.4-1.8,3.3-2.4,4.5-2.4c1.4,0,2,0.7,2.1,1.3C272.2,115.6,271.8,116.4,271.3,117.1"/>
<polygon points="334.7,140.3 171,140.3 174.2,136 338,136 334.7,140.3 "/>
</svg>
